<svg xmlns="http://www.w3.org/2000/svg" width="410" height="403" fill="none" viewBox="0 0 410 403">
  <path fill="#644DFF" fill-rule="evenodd" d="M367.132 65.259c-64.8-77.285-179.928-87.365-257.163-22.525C57.484 86.786 36.028 154.1 47.984 216.964l.429 2.246.24-.1c52.583-19.761 70.358-59.042 101.116-109.6 41.157-67.614 121.865-64.221 159.05-12.116 58.443 81.916 45.559 197.883 11.138 242.263 8.583-4.98 16.756-10.439 24.68-17.095 77.235-64.83 87.305-180.028 22.495-257.303" clip-rule="evenodd"></path>
  <path fill="#fff" d="M309.176 96.36c-37.175-52.106-117.893-55.5-159.05 12.115-30.769 50.558-48.533 89.849-101.117 109.6-.06.079-.11.159-.17.229 6.158 28.952 24.59 59.331 62.245 72.125 43.203 14.671 64.291-7.275 93.462-1.068 26.088 5.549 35.489 21.876 49.74 37.765 15.898 17.724 43.383 22.085 62.674 13.433a182 182 0 0 0 3.354-1.917c34.421-44.37 47.315-160.357-11.128-242.283z"></path>
  <path fill="#644DFF" d="M269.902 154.124c6.297 20.848 6.527 40.02-6.577 42.884-12.655 2.765-19.112-12.465-25.399-33.293-6.297-20.848-9.481-36.337 4.092-40.499 13.103-4.031 21.586 10.08 27.884 30.908M311.44 143.882c6.477 19.241 6.317 37.654-3.623 39.65-10.469 2.096-15.868-12.415-22.345-31.656-6.477-19.242-11.716-33.124-2.066-37.864 10.669-5.24 21.557 10.628 28.034 29.87M203.252 195.641c.549-7.465 13.093-10.868 14.331-3.962 4.511 25.07 34.371 43.453 54.261 28.383 5.728-4.351 12.385 7.685 9.052 11.487-26.377 24.91-80.209-.818-77.634-35.908z"></path>
  <path fill="#FF4CD2" d="m319.957 339.657-.01.01a188 188 0 0 1-3.353 1.916c-6.637 2.974-14.231 4.411-21.996 4.301-14.83-.219-30.249-6.098-40.688-17.734-14.252-15.888-23.653-32.215-49.74-37.764-3.643-.779-7.166-1.108-10.619-1.128-17.265-.11-32.844 7.615-54.111 7.355-8.513-.1-17.934-1.477-28.742-5.149a99 99 0 0 1-13.214-5.579 89 89 0 0 1-2.894-1.547c-.05-.03-.11-.06-.16-.09a80 80 0 0 1-2.704-1.577c-.08-.05-.16-.1-.24-.14a72 72 0 0 1-2.555-1.626c-.09-.06-.19-.12-.28-.18a72 72 0 0 1-2.444-1.686c-.09-.07-.19-.13-.29-.2a84 84 0 0 1-2.345-1.747c-.09-.069-.19-.139-.28-.209a106 106 0 0 1-2.265-1.817 7 7 0 0 0-.26-.209 101 101 0 0 1-2.185-1.886c-.08-.07-.16-.14-.23-.21a101 101 0 0 1-2.115-1.966c-.06-.06-.13-.12-.19-.18a134 134 0 0 1-2.066-2.055l-.15-.15a102 102 0 0 1-2.005-2.146c-.04-.04-.07-.08-.11-.12a101 101 0 0 1-1.956-2.235c-.02-.03-.04-.05-.06-.08a85 85 0 0 1-1.906-2.335s-.01-.02-.02-.02c-10.639-13.513-16.906-29.271-19.8-44.491-10.2-53.632 3.942-110.498 40.907-153.392C35.648 95.477 0 153.75 0 220.356c0 100.868 81.726 182.643 182.543 182.643 55.688 0 105.548-24.959 139.031-64.3-.539.319-1.078.648-1.627.958z"></path>
</svg>
